<?xml version="1.0" encoding="UTF-8"?>
<!DOCTYPE svg PUBLIC "-//W3C//DTD SVG 1.1//EN" "http://www.w3.org/Graphics/SVG/1.1/DTD/svg11.dtd">
<!-- Creator: CorelDRAW 2021 (64 Bit) -->
<svg xmlns="http://www.w3.org/2000/svg" xml:space="preserve" width="37.0599mm" height="37.0417mm" version="1.1" style="shape-rendering:geometricPrecision; text-rendering:geometricPrecision; image-rendering:optimizeQuality; fill-rule:evenodd; clip-rule:evenodd"
viewBox="0 0 1272.29 1271.66"
 xmlns:xlink="http://www.w3.org/1999/xlink"
 xmlns:xodm="http://www.corel.com/coreldraw/odm/2003">
 <defs>
  <style type="text/css">
   <![CDATA[
    .fil0 {fill:black;fill-rule:nonzero}
   ]]>
  </style>
 </defs>
 <g id="Camada_x0020_1">
  <metadata id="CorelCorpID_0Corel-Layer"/>
  <path class="fil0" d="M372.06 1.45c144.77,14.48 186,102.22 247.67,212.71 29.71,53.24 38.52,113.23 29.24,170.94 -18.16,113.01 -98.75,131.24 -71.82,189.65 18.85,40.91 101.31,130.05 148.99,127.78 2.13,-0.1 3.81,-0.51 5.05,-0.96 43.84,-42 98.85,-69 156.07,-78.2 106.17,-17.06 165.16,26.03 251.09,74 76.14,42.48 123.82,115.66 132.55,202.9 5.82,58.2 -6.59,119.11 -36.72,173.1 -58.56,104.92 -195.06,193.27 -314.19,197.78 -86.32,3.28 -205.47,-8.16 -337.96,-65.56 -97,-42.01 -200.93,-108.44 -303.88,-211.4 -102.95,-102.95 -169.38,-206.88 -211.39,-303.88 -59.45,-137.25 -99.93,-333 -29.31,-474.13 63.71,-127.36 185.61,-229.65 334.62,-214.73zm-17.45 168.03c-73.85,-8.68 -133.04,59.08 -164,117.93 -42.93,81.58 -14.06,213.59 14.8,294.62 31.89,89.5 89.96,190.38 192.24,292.67 102.29,102.28 203.17,160.35 292.68,192.23 89.07,31.72 166.84,37.67 223.44,35.53 79.68,-3 199.94,-92.59 189.11,-184.74 -7.81,-66.39 -127.94,-138.85 -191.89,-127.19 -70.46,12.84 -73.78,75.64 -176.75,80.65 -34.82,1.69 -73.15,-5.6 -114.28,-25.95 -103.36,-51.1 -224.79,-184.49 -218.78,-307.16 5.04,-103.21 67.91,-106.87 80.64,-176.68 10.52,-57.72 -55.4,-183.48 -127.2,-191.9z"/>
 </g>
</svg>
