<?xml version="1.0" encoding="UTF-8"?>
<!DOCTYPE svg PUBLIC "-//W3C//DTD SVG 1.1//EN" "http://www.w3.org/Graphics/SVG/1.1/DTD/svg11.dtd">
<!-- Creator: CorelDRAW 2021 (64 Bit) -->
<svg xmlns="http://www.w3.org/2000/svg" xml:space="preserve" width="43.9598mm" height="37.0417mm" version="1.1" style="shape-rendering:geometricPrecision; text-rendering:geometricPrecision; image-rendering:optimizeQuality; fill-rule:evenodd; clip-rule:evenodd"
viewBox="0 0 498.21 419.81"
 xmlns:xlink="http://www.w3.org/1999/xlink"
 xmlns:xodm="http://www.corel.com/coreldraw/odm/2003">
 <defs>
  <style type="text/css">
   <![CDATA[
    .fil0 {fill:black;fill-rule:nonzero}
   ]]>
  </style>
 </defs>
 <g id="Camada_x0020_1">
  <metadata id="CorelCorpID_0Corel-Layer"/>
  <path class="fil0" d="M-0 74.09c0,-40.91 33.17,-74.09 74.08,-74.09l67.93 0c26.65,0 52.17,10.77 70.76,29.86l-16.48 16.06 16.48 -16.06 27.33 28.05c4.65,4.77 11.03,7.46 17.69,7.46 74.04,9.68 181.78,-20.49 197.29,91.67 33.56,12.99 52.74,51.84 38.24,88.1l-45.01 112.56c-15,37.51 -51.32,62.1 -91.71,62.1l-257.81 0c-27.53,0 -52.46,-11.29 -70.35,-29.44 -17.55,-17.81 -28.43,-42.33 -28.43,-69.34l0 -246.94zm404.57 78.44c-16.86,-69.86 -152.36,-11.43 -199.85,-60.16l-27.32 -28.05 17.69 -17.23 -17.69 17.23c-9.3,-9.55 -22.05,-14.93 -35.38,-14.93l-67.93 0c-13.63,0 -24.69,11.06 -24.69,24.7l0 208.6 25.63 -78.95c9.91,-30.54 38.37,-51.21 70.46,-51.21l259.08 0z"/>
 </g>
</svg>
