<?xml version="1.0" encoding="UTF-8"?>
<!DOCTYPE svg PUBLIC "-//W3C//DTD SVG 1.1//EN" "http://www.w3.org/Graphics/SVG/1.1/DTD/svg11.dtd">
<!-- Creator: CorelDRAW 2021 (64 Bit) -->
<svg xmlns="http://www.w3.org/2000/svg" xml:space="preserve" width="41.4803mm" height="37.0417mm" version="1.1" style="shape-rendering:geometricPrecision; text-rendering:geometricPrecision; image-rendering:optimizeQuality; fill-rule:evenodd; clip-rule:evenodd"
viewBox="0 0 347.76 310.55"
 xmlns:xlink="http://www.w3.org/1999/xlink"
 xmlns:xodm="http://www.corel.com/coreldraw/odm/2003">
 <defs>
  <style type="text/css">
   <![CDATA[
    .fil0 {fill:black;fill-rule:nonzero}
   ]]>
  </style>
 </defs>
 <g id="Camada_x0020_1">
  <metadata id="CorelCorpID_0Corel-Layer"/>
  <path class="fil0" d="M66.44 8.18c35.88,-14.87 77.01,-9.15 107.45,14.71 18.89,-14.79 42.3,-22.89 66.31,-22.89 29.69,0 56.59,12.04 76.05,31.51 29.75,29.75 39.35,74.05 24.83,113.33 -4.38,11.85 -10.85,22.93 -19.2,32.68l-121.71 122.12c-6.95,6.94 -16.48,10.9 -26.3,10.9 -8.91,0 -17.5,-3.2 -24.25,-9.01 -39.35,-33.65 -85.61,-85.73 -123.44,-123.69 -16.72,-18.03 -26.19,-45.89 -26.19,-70.3 0,-44.07 26.25,-82.72 66.44,-99.37zm-6.59 142.59c36.53,38.55 76.34,76.46 114.04,114.16l74.48 -74.49 -46.85 -46.84 -12.36 12.36c-9.88,9.88 -23.4,15.49 -37.37,15.49 -29.17,0 -52.85,-23.68 -52.85,-52.85 0,-6.97 1.4,-13.83 4.04,-20.2 2.64,-6.36 6.5,-12.21 11.44,-17.15l27.92 -27.94c-4.24,-2.72 -8.76,-4.92 -13.46,-6.56 -6.76,-2.37 -13.96,-3.6 -21.29,-3.6 -8.05,0 -15.93,1.49 -23.25,4.32 -7.34,2.84 -14.17,7.04 -20.11,12.44 -6.83,6.49 -12.16,13.85 -15.74,21.95 -9.99,22.59 -5.74,50.9 11.36,68.92zm129.61 -58.21c4,-4 9.6,-6.32 15.26,-6.32 5.68,0 11.24,2.31 15.25,6.32l62.13 62.12c15.66,-15.62 25.72,-28.68 25.72,-52.4 0,-17.78 -7.21,-33.88 -18.86,-45.53 -11.65,-11.65 -27.75,-18.86 -45.53,-18.86 -8.19,0 -16.27,1.47 -23.72,4.35 -21.74,8.41 -58.06,50.72 -71.6,64.25 -8.51,8.55 3.36,22.94 13.76,13.66l27.59 -27.59z"/>
 </g>
</svg>
