<?xml version="1.0" encoding="UTF-8"?>
<!DOCTYPE svg PUBLIC "-//W3C//DTD SVG 1.1//EN" "http://www.w3.org/Graphics/SVG/1.1/DTD/svg11.dtd">
<!-- Creator: CorelDRAW 2021 (64 Bit) -->
<svg xmlns="http://www.w3.org/2000/svg" xml:space="preserve" width="38.6623mm" height="37.0416mm" version="1.1" style="shape-rendering:geometricPrecision; text-rendering:geometricPrecision; image-rendering:optimizeQuality; fill-rule:evenodd; clip-rule:evenodd"
viewBox="0 0 743.36 712.2"
 xmlns:xlink="http://www.w3.org/1999/xlink"
 xmlns:xodm="http://www.corel.com/coreldraw/odm/2003">
 <defs>
  <style type="text/css">
   <![CDATA[
    .fil0 {fill:black;fill-rule:nonzero}
   ]]>
  </style>
 </defs>
 <g id="Camada_x0020_1">
  <metadata id="CorelCorpID_0Corel-Layer"/>
  <path class="fil0" d="M146.74 167.22c18.7,-17.21 47.82,-16 65.03,2.7 17.21,18.7 16,47.82 -2.7,65.03l-98.56 90.98c-6.19,5.71 -9.48,12.84 -9.8,21.25 -0.32,8.42 2.4,15.77 8.13,21.94l102.75 110.66c17.31,18.6 16.26,47.72 -2.34,65.02 -18.6,17.31 -47.72,16.26 -65.02,-2.34l-117.02 -126.03c-19.1,-20.57 -28.19,-45.1 -27.11,-73.15 1.08,-28.05 12.03,-51.81 32.66,-70.84l113.99 -105.22zm387.56 67.73c-18.7,-17.21 -19.91,-46.33 -2.7,-65.03 17.21,-18.7 46.32,-19.91 65.03,-2.7l113.99 105.22c20.63,19.04 31.58,42.79 32.66,70.84 1.08,28.05 -8.01,52.58 -27.11,73.15l-117.02 126.03c-17.31,18.6 -46.42,19.65 -65.02,2.34 -18.6,-17.31 -19.65,-46.42 -2.34,-65.02l102.75 -110.66c5.73,-6.17 8.46,-13.53 8.13,-21.94 -0.32,-8.41 -3.61,-15.54 -9.8,-21.25l-98.57 -90.98zm-129.77 -200.06c6.17,-24.67 31.17,-39.67 55.84,-33.5 24.67,6.17 39.67,31.17 33.5,55.84l-155.03 620.09c-6.17,24.67 -31.17,39.67 -55.84,33.5 -24.67,-6.17 -39.67,-31.17 -33.5,-55.84l155.03 -620.09z"/>
 </g>
</svg>
