<?xml version="1.0" encoding="UTF-8"?>
<!DOCTYPE svg PUBLIC "-//W3C//DTD SVG 1.1//EN" "http://www.w3.org/Graphics/SVG/1.1/DTD/svg11.dtd">
<!-- Creator: CorelDRAW 2021 (64 Bit) -->
<svg xmlns="http://www.w3.org/2000/svg" xml:space="preserve" width="53.1812mm" height="37.9978mm" version="1.1" style="shape-rendering:geometricPrecision; text-rendering:geometricPrecision; image-rendering:optimizeQuality; fill-rule:evenodd; clip-rule:evenodd"
viewBox="0 0 15924.6 11378.07"
 xmlns:xlink="http://www.w3.org/1999/xlink"
 xmlns:xodm="http://www.corel.com/coreldraw/odm/2003">
 <defs>
  <style type="text/css">
   <![CDATA[
    .str0 {stroke:black;stroke-width:79.2;stroke-linecap:round;stroke-linejoin:round;stroke-miterlimit:22.9256}
    .fil0 {fill:black}
   ]]>
  </style>
 </defs>
 <g id="Camada_x0020_1">
  <metadata id="CorelCorpID_0Corel-Layer"/>
  <g id="_2275053560768">
   <path class="fil0 str0" d="M2370.97 11309.92l-614.06 -319.98c-73.06,-38.09 -152.92,-38.09 -225.99,0l-614.06 319.98c-84.29,43.93 -179.78,36.86 -256.71,-19.01 -76.9,-55.88 -113.13,-144.51 -97.41,-238.26l114.6 -682.9c13.62,-81.24 -11.08,-157.21 -69.83,-214.91l-494.11 -485.12c-67.82,-66.6 -90.61,-159.63 -61.24,-250.03 29.38,-90.4 102.47,-152.27 196.49,-166.28l684.88 -102.05c81.48,-12.16 146.1,-59.11 182.84,-132.83l308.69 -619.81c42.37,-85.1 123.79,-135.5 218.86,-135.5 95.04,0 176.49,50.4 218.86,135.5l308.69 619.81c36.71,73.72 101.36,120.7 182.84,132.83l684.88 102.05c93.99,14.01 167.12,75.88 196.49,166.28 29.38,90.4 6.59,183.44 -61.24,250.03l-494.11 485.12c-58.78,57.7 -83.45,133.7 -69.83,214.91l114.6 682.9c15.72,93.75 -20.54,182.39 -97.44,238.26 -76.9,55.88 -172.42,62.94 -256.71,19.01z"/>
   <rect class="fil0 str0" x="4595.17" y="9115.54" width="11289.83" height="1370.63" rx="1042.46" ry="685.32"/>
   <path class="fil0 str0" d="M2370.97 7198.13l-614.06 -319.98c-73.06,-38.09 -152.92,-38.09 -225.99,0l-614.06 319.98c-84.29,43.93 -179.78,36.86 -256.71,-19.01 -76.9,-55.88 -113.13,-144.51 -97.41,-238.26l114.6 -682.9c13.62,-81.24 -11.08,-157.21 -69.83,-214.91l-494.11 -485.12c-67.82,-66.6 -90.61,-159.63 -61.24,-250.03 29.38,-90.4 102.47,-152.27 196.49,-166.28l684.88 -102.05c81.48,-12.16 146.1,-59.11 182.84,-132.83l308.69 -619.81c42.37,-85.1 123.79,-135.5 218.86,-135.5 95.04,0 176.49,50.4 218.86,135.5l308.69 619.81c36.71,73.72 101.36,120.7 182.84,132.83l684.88 102.05c93.99,14.01 167.12,75.88 196.49,166.28 29.38,90.4 6.59,183.44 -61.24,250.03l-494.11 485.12c-58.78,57.7 -83.45,133.7 -69.83,214.91l114.6 682.9c15.72,93.75 -20.54,182.39 -97.44,238.26 -76.9,55.88 -172.42,62.94 -256.71,19.01z"/>
   <path class="fil0 str0" d="M2370.97 3086.33l-614.06 -319.98c-73.06,-38.09 -152.92,-38.09 -225.99,0l-614.06 319.98c-84.29,43.93 -179.78,36.86 -256.71,-19.01 -76.9,-55.88 -113.13,-144.51 -97.41,-238.26l114.6 -682.9c13.62,-81.24 -11.08,-157.21 -69.83,-214.91l-494.11 -485.12c-67.82,-66.6 -90.61,-159.63 -61.24,-250.03 29.38,-90.4 102.47,-152.27 196.49,-166.28l684.88 -102.05c81.48,-12.16 146.1,-59.11 182.84,-132.83l308.69 -619.81c42.37,-85.1 123.79,-135.5 218.86,-135.5 95.04,0 176.49,50.4 218.86,135.5l308.69 619.81c36.71,73.72 101.36,120.7 182.84,132.83l684.88 102.05c93.99,14.01 167.12,75.88 196.49,166.28 29.38,90.4 6.59,183.44 -61.24,250.03l-494.11 485.12c-58.78,57.7 -83.45,133.7 -69.83,214.91l114.6 682.9c15.72,93.75 -20.54,182.39 -97.44,238.26 -76.9,55.88 -172.42,62.94 -256.71,19.01z"/>
   <rect class="fil0 str0" x="4595.17" y="5003.75" width="11289.83" height="1370.63" rx="1042.46" ry="685.32"/>
   <rect class="fil0 str0" x="4595.16" y="891.95" width="7605.78" height="1370.63" rx="702.29" ry="685.32"/>
  </g>
 </g>
</svg>
