<?xml version="1.0" encoding="UTF-8"?>
<!DOCTYPE svg PUBLIC "-//W3C//DTD SVG 1.1//EN" "http://www.w3.org/Graphics/SVG/1.1/DTD/svg11.dtd">
<!-- Creator: CorelDRAW 2021 (64 Bit) -->
<svg xmlns="http://www.w3.org/2000/svg" xml:space="preserve" width="30.5586mm" height="37.0417mm" version="1.1" style="shape-rendering:geometricPrecision; text-rendering:geometricPrecision; image-rendering:optimizeQuality; fill-rule:evenodd; clip-rule:evenodd"
viewBox="0 0 325.59 394.67"
 xmlns:xlink="http://www.w3.org/1999/xlink"
 xmlns:xodm="http://www.corel.com/coreldraw/odm/2003">
 <defs>
  <style type="text/css">
   <![CDATA[
    .fil0 {fill:black;fill-rule:nonzero}
   ]]>
  </style>
 </defs>
 <g id="Camada_x0020_1">
  <metadata id="CorelCorpID_0Corel-Layer"/>
  <path class="fil0" d="M207.21 93.73c0,-12.27 -4.97,-23.37 -13.01,-31.41 -8.03,-8.03 -19.14,-13.01 -31.41,-13.01 -12.27,0 -23.37,4.97 -31.41,13.01 -8.03,8.03 -13.01,19.14 -13.01,31.41 0,12.27 4.97,23.37 13.01,31.41 8.03,8.03 19.14,13.01 31.41,13.01 12.27,0 23.37,-4.97 31.41,-13.01 8.03,-8.03 13.01,-19.14 13.01,-31.41zm118.25 207.51c-0.16,13.56 -11.29,24.43 -24.85,24.27 -13.56,-0.16 -24.43,-11.29 -24.27,-24.85l0.03 -4 0 -4.35 -0.1 0c0,-11.87 -10.64,-23.8 -27.84,-33.47 -21.51,-12.1 -51.75,-19.58 -85.64,-19.58 -33.89,0 -64.14,7.48 -85.64,19.58 -17.2,9.67 -27.84,21.6 -27.84,33.47 0,29.3 0,53.05 113.49,53.05 19.29,0 35.13,-0.61 47.99,-1.76 12.89,-1.15 23.63,-2.85 32.58,-5 13.19,-3.19 26.47,4.92 29.66,18.11 3.19,13.19 -4.92,26.47 -18.1,29.66 -11.09,2.67 -24.25,4.75 -39.9,6.16 -15.68,1.41 -32.99,2.15 -52.22,2.15 -162.8,0 -162.8,-45.83 -162.8,-102.36 0,-31.04 20.28,-57.98 53.08,-76.42 28.49,-16.02 67.32,-25.94 109.72,-25.94 42.41,0 81.23,9.91 109.72,25.94 32.79,18.45 53.08,45.38 53.08,76.42l-0.1 0 -0.01 4.35 -0.03 4.58zm-96.39 -273.78c16.96,16.96 27.46,40.39 27.46,66.27 0,25.88 -10.49,49.31 -27.46,66.27 -16.96,16.96 -40.39,27.46 -66.27,27.46 -25.88,0 -49.31,-10.49 -66.27,-27.46 -16.96,-16.96 -27.46,-40.39 -27.46,-66.27 0,-25.88 10.49,-49.31 27.46,-66.27 16.96,-16.96 40.39,-27.46 66.27,-27.46 25.88,0 49.31,10.49 66.27,27.46z"/>
 </g>
</svg>
